<svg id="Слой_1" data-name="Слой 1" xmlns="http://www.w3.org/2000/svg" viewBox="0 0 1945.56 1323.48"><defs><style>.cls-1{fill:#458e54;}.cls-2{fill:#458f54;}</style></defs><title>printlogo</title><path class="cls-1" d="M234.89-463.81c7.72,1.43,12.78,5.94,15.51,13.26,4.76,12.8,9.12,25.7,10.84,39.34a38.12,38.12,0,0,1,.17,10.45c-.19,1.27-.9,2.66,1.2,3.1,1.91.4,2.11-.87,2.53-2.21,1.83-5.87,3.58-11.78,5.69-17.55,3.36-9.16,11.75-13.65,19.59-10.78,8,2.94,11.31,12,7.69,21.33a160.48,160.48,0,0,1-11.76,24.21,13.08,13.08,0,0,0-1.53,3.09,2.32,2.32,0,0,0,1.26,2.52c.92.51,1.37-.56,1.85-1.15,1.67-2.08,3.28-4.2,5-6.28,1.35-1.68,2.7-3.39,4.17-5,6.79-7.28,17-8.2,23.69-2.18s7,16.34.49,23.83a168.18,168.18,0,0,1-21.38,21c-2.32,1.86-3.84,3.64-2.32,7,3-.81,5-3.36,7.51-5.08,7.82-5.45,16.66-4.83,21.4,1.65,4.89,6.69,2.87,15.82-5.14,21.15-11.48,7.64-22.84,15.69-37,17.85-2.17.33-2.06,1.39-1.74,3.13,12.51,68.52,9.13,137.75,9,206.82,0,14.15-1.18,28.29-1.81,42.43-.8,3.87,0,7.8-.42,11.69a47.35,47.35,0,0,0-1,9.81,34.26,34.26,0,0,1,1-9.26c.23-2.4-.37-5,1.34-7.08,10.66-55.71,46.63-89,97-109.48a3.12,3.12,0,0,1,3-.11c-3.56,4.17-7.31,8.14-10.6,12.47-15.71,20.71-23.7,44.51-26.8,70C349.35-41.53,352.87-10.07,366,20c6.23,14.19,14.9,26.66,26.89,36.76,3.59,3,5.63,3.07,8.57-.89,13.93-18.75,21.68-39.92,25.39-62.74,3.16-19.39,2.42-38.47-4.91-57-3.1-7.81-7.64-14.73-13.41-21.65,3.92.43,6.79,2,9.69,3.37,15.4,7.39,27.31,18.87,37.39,32.38C468.94-32,477.94-12,484,9.28a4.56,4.56,0,0,1,1.31,3.87c-.52-3,.71-6.46-.29-10-3.38-48.87-8.45-97.5-20.9-145.08-1-3.64-1.88-4.73-5.83-3.62-8.92,2.53-18.17,2.26-27.31,1.53-6.68-.54-10.91-5.75-10.39-11.75s5.73-10,12.39-9.75c2.47.1,4.94.49,7.7.78-.73-3.67-2.61-4.92-6.12-5A101,101,0,0,1,414.33-173c-7.37-1.78-11.82-8.46-10.16-14.78,1.72-6.5,8.58-10.14,15.89-8.36,3.06.74,6.09,1.63,9.21,2.47.93-2.46.43-3.75-2.26-4.33-4.71-1-9.39-2.23-14-3.58-8.53-2.51-12.47-8.28-10.31-14.79,2.23-6.72,9-9.06,17.47-6,4.11,1.51,8.17,3.15,12.74,4.93-.21-1.24-.13-1.89-.39-2.09-12.84-9.64-20-23.46-27-37.28a14.78,14.78,0,0,1,6.37-19.76c7.07-3.49,16.09-.44,19.84,7.39,6.4,13.35,12.81,26.77,13.13,42.05,0,1-.2,2.07,1.2,2.31,1.77.3,1.73-1,2-2.16,1.2-5,2.25-10.07,3.68-15,2.25-7.79,8.65-11.82,15.33-9.94,7,1.95,10.31,9,8,16.83A131.7,131.7,0,0,1,467-214.11c-.84,1.73-2.37,3.53.44,5.25,2.53-3.66,5-7.43,7.65-11,4.9-6.5,13.55-8.14,19.45-3.84,6.06,4.41,7.26,12.85,2.51,19.58a127.78,127.78,0,0,1-16.63,19.28c-1.9,1.8-3.14,3.44-1.07,6,2.27-1.93,4.45-4,6.82-5.76,5.58-4.22,12.54-3.7,16.64,1.11a11.85,11.85,0,0,1-2,16.94c-9.17,7.43-18.31,15.08-30.18,18-3.07.75-1.83,2.67-1.39,4.24,4.89,17.49,8.29,35.31,11.34,53.18,2.09,12.29,3.73,24.65,5.89,37,1.67-8.94,2.35-18,4.3-26.89,3.23-14.6,7.89-28.56,17.15-40.58,10.47-13.59,24.52-20.65,41.47-22,12.14-1,24,0,34.88,6.14,26.11,14.59,29.4,52.46,6,70-9.07,6.82-19.4,8.77-30.31,6.51a26.7,26.7,0,0,1-20.18-34.4,18.75,18.75,0,0,1,22.31-12.22,11,11,0,0,1,5.57,3.17c2.94,3.24,3.4,6.85,1,10.49a7.34,7.34,0,0,1-10.58,2c-3.07-2.12-5.79-2.57-8.54,0-2.94,2.73-2.35,6-.82,9.19,2.75,5.72,10.84,9.07,18.58,7.84,10.81-1.71,17.83-8.92,19.36-19.89,1.6-11.47-3.91-21.84-14.2-26.74-22.78-10.85-48.08,3.82-50.72,29.18C519.92-74.94,526.05-60,536-46.33,540.57-40,545.91-34.22,550.67-28,569.55-3.37,580,24.36,581.09,55.5a7.9,7.9,0,0,0,.7,3.27c11-15.79,22.09-31.42,37-43.77a143,143,0,0,1,51.27-27.25c-1.26,4-4,5.52-5.91,7.64C653,7.78,646,21.68,647.87,38.88c1.17,11,5.65,20.81,11.15,30.21,8.35,14.28,18.81,27.07,28.61,40.31,8.53,11.53,16.79,23.22,22.79,36.32.76,1.64,1.19,2.92,3.52,1.67,29-15.62,58.47-12.33,87.9-1.41,29.76,11,56.19,28.09,82.14,46,35,24.08,68.39,50.4,103.79,73.89,25.43,16.88,51.55,32.5,80.81,42,20.72,6.73,41.76,10,63.37,4.44,14.25-3.69,25.93-10.43,30.41-25.74,4.8-16.42-2.08-32-16.21-36.59-13.75-4.43-26,1.89-28.78,14.86-2.53,11.78,7.54,21.43,19.16,18.27,4.23-1.15,7.07-3.83,7.22-8.46.12-3.9-2.58-5.61-5.89-3.58-2.41,1.48-4.49,2.26-6.74.16a6.29,6.29,0,0,1-2-6.81c.87-2.66,3.12-3.72,5.78-4.05,10.25-1.28,17.11,6,15.2,16.18-1.82,9.73-9.34,16.55-18.81,17.06-12.52.67-23-6.18-26.31-17.17-5.83-19.49,9-40.22,29.33-41.11,27-1.19,44.48,13.13,47.67,39,1,3.29-.43,6.78.86,10.05v1c-2.58,2-1.76,5.09-2.53,7.66-7.31,24.3-24.09,37.35-48.66,41.24l-7.85,1.27c-1.73.71-3.67-.1-5.39.72l-19.29,0c-2.34-1-4.89.11-7.25-.74-19.52-1.52-38.35-6.24-57-12.13a503.52,503.52,0,0,1-76.69-32c-18.94-9.67-36.94-21-55-32.14-19.35-12-38.93-23.5-59.42-33.42C827,217.65,809.56,211,791.18,207.29c-2.25-.45-4.65-1.38-7.11-1-2-1-4.2.08-6.19-.75a90.68,90.68,0,0,0-16.06,0c-2,.81-4.29-.2-6.32.73-9,.17-17.42,3.08-25.9,5.63a167.88,167.88,0,0,1-29.79,6.65,116.16,116.16,0,0,1-18.93,0l-4.83-.24c-1.61-1-3.53,0-5.17-.78A121.21,121.21,0,0,1,631,206.73c-11.11-5.24-21.12-12.45-31-19.77-17.44-13-35.66-24.62-55.42-33.79-20.81-9.66-42.17-17.43-64.73-22.15-11.23-2.35-22.47-4.15-33.79-5.75-2-1-4.21.09-6.2-.76l-6.62-.26a229.1,229.1,0,0,0-30.78,0c-20.08,1.26-39.62,4.67-58.27,12.79-11.24,4.89-20.94,12.35-31.76,17.8a208.24,208.24,0,0,1-34.4,13.38c-11.88,3.53-24.11,5.08-36.23,7.28-1.69.78-3.62-.14-5.3.75l-5.71.29c-2.39.79-5-.26-7.34.71H196.23c-2.38-1-4.95.08-7.34-.72l-5.71-.28c-1.68-.89-3.61,0-5.3-.75a217.06,217.06,0,0,1-51.54-12,197.72,197.72,0,0,1-36.15-18.19,126.59,126.59,0,0,0-44.68-17.11c-9.39-1.73-18.75-3.44-28.3-3.91a230.77,230.77,0,0,0-30.78,0l-6.61.27c-2,.85-4.23-.26-6.21.76a195.88,195.88,0,0,0-28.74,4.15,345.84,345.84,0,0,0-38.65,10.49C-127,151.37-157.29,168.24-185,189.68a138.67,138.67,0,0,1-62.19,27.57,36.88,36.88,0,0,1-3.94.25c-1.64.82-3.56-.21-5.17.78l-4.84.24a116.16,116.16,0,0,1-18.93,0c-16-.86-30.73-7.45-46.19-10.78-3.13-.68-6.33-1-9.5-1.5-2-.94-4.27.08-6.31-.73a90.68,90.68,0,0,0-16.06,0c-2,.82-4.24-.26-6.23.74-12.67.8-24.56,4.81-36.31,9.18-28.3,10.54-54.15,25.78-79.79,41.5-23.38,14.32-46.58,29-71.48,40.67-25.34,11.85-51.1,22.61-78.24,29.85a301.59,301.59,0,0,1-42,8.06c-2.06.78-4.31-.19-6.36.72h-20.18c-1.72-.82-3.65,0-5.39-.72-9.74-1.16-19.31-2.83-28.33-7.1-14.81-7-23.52-19-28.41-34.08-.93-2.86-1-6-1.44-9a45,45,0,0,1,0-11.93c5.1-34.53,34.21-41.75,54.46-36.95,17,4,27.62,23.11,22.57,39.84-2.81,9.3-9.38,14.83-18.74,16.76-8.1,1.68-15.59.41-21.44-6.2a21,21,0,0,1-5.32-12.66,13.23,13.23,0,0,1,17.41-13.49c3.62,1.25,5.11,4.45,3.7,8-1.53,3.8-4.23,4.82-7.92,2.67-1.73-1-3.34-1.81-5-.4s-1.82,3.51-1.25,5.54a9.16,9.16,0,0,0,6.41,6.43,15.35,15.35,0,0,0,19.93-17.47c-2-11.26-12-18.37-23.46-16.72-15.83,2.3-25.52,15.85-22.89,32.33,2.1,13.14,9,22.64,21.56,27.81,20.84,8.57,42,7.47,63.2,2,26.07-6.73,49.6-19.09,72.37-33,33-20.22,63.66-43.75,95-66.36,27.95-20.18,56-40.25,87-55.61,19.8-9.8,40.25-17.48,62.66-18.78,15.81-.92,30.91,1.65,44.95,9,4.14,2.16,4.94,1,5.92-2.82,3-11.61,9-21.78,15.52-31.67,5.94-9,12.11-17.94,18.06-27a79.44,79.44,0,0,0,7.86-15c5.59-14.44,2.58-25.8-9.54-35.51-2.56-2-5.3-3.89-8.28-6.06,35.39.28,62.07,15.47,69.93,40.11a165.88,165.88,0,0,0,13.06-31.27c6-19.8,8.16-39.74,1.52-59.89-4.11-12.46-11.42-22.83-20.95-32,13.46-.22,40.51,18.88,54.8,38.53,13.71,18.85,21.65,40.25,27.65,62.6.59-9.84.18-19.66,1.16-29.48,3.63-36,17.81-67.28,41.1-94.64,10.86-12.76,20.79-26,25.56-42.42a61.86,61.86,0,0,0-1.1-38.74c-9.33-26.51-45.46-30.59-62-17.21-9.85,8-12.62,18.51-10.14,30.49,2.14,10.36,8.55,17.2,18.91,19.75,6.64,1.63,13.27,1.26,19.31-2.43,4.07-2.49,6.61-6,7-10.92a7,7,0,0,0-3.81-7,6.39,6.39,0,0,0-7.43.42c-5.45,3.72-11.32,2.6-14.12-2.42s-.54-10.9,5-13.86c11.38-6,27,1.83,30,15.08,4.9,21.81-12.09,40.83-35,39.2-20.09-1.43-34.71-12.77-40.59-31.5-6.35-20.22-.17-41.55,15.71-54.12,13.13-10.38,28.36-13.37,44.64-12.45,34.45,2,54.93,21.6,66.17,52.67C-15-136.19-12.11-118.14-11-99.79a10.14,10.14,0,0,1,.72,2.35A5.93,5.93,0,0,1-10.41-95c.53-1.22,0-2.76,1.13-3.79,4-33.57,9-66.95,17.81-99.64.88-3.25,1-4.72-3.14-6-12.82-4-23.21-12.23-32.85-21.22-4.95-4.61-4.78-12.47-.64-17.34s11.94-5.8,17.69-1.74c3.1,2.19,5.81,4.92,8.72,7.42,1.61-2.9.83-4.89-1.46-7a150.06,150.06,0,0,1-17.57-20.43c-5.73-7.78-4.77-17.69,2.06-22.75s16.53-3,22.25,4.92C5.45-280,7.05-277.29,9-274.78c1,1.28,1.36,4.23,3.36,3.33,2.57-1.17.68-3.36-.14-5.09a151.53,151.53,0,0,1-8.7-22.81,22.92,22.92,0,0,1-.92-4.38c-.66-7.35,3.65-13.64,10.23-15.08a13.91,13.91,0,0,1,15.9,9.07,116.74,116.74,0,0,1,4.35,17.92c.23,1.29-.11,3.42,2,3.45,2.74,0,1.8-2.29,1.8-3.74a50.66,50.66,0,0,1,2.26-13.76A162.4,162.4,0,0,1,51.7-337.29c4.58-8.75,14.44-12.3,22.35-8.28s11.17,14.28,6.56,22.88C72.75-308,65.05-293.15,51.18-282.9c-.72.53-1.48,1.06-.92,1.93s1.47.57,2.28.26c4.51-1.72,9-3.59,13.52-5.13,8.11-2.76,15.7.42,17.69,7.22,2.07,7-2.09,13.65-10.38,16.05-5.27,1.53-10.61,2.82-16,3.94-2.42.51-4.59,1.34-3.78,4,.75,2.43,2.76.3,4.14,0,3.1-.56,6.12-1.7,9.24-2,7.27-.72,13.76,4,14.84,10.5A13.62,13.62,0,0,1,71.9-230.8a118,118,0,0,1-24.62,3.91c-3.63.2-5.42,1.61-6.29,5,2.6.6,5,0,7.49-.18,7.84-.67,14.09,3.83,14.87,10.76.74,6.57-4.5,12.33-12.23,13-10.67.91-21.37.75-31.69-2.35-3.95-1.18-4.68.23-5.52,3.38Q7.87-174.9,4.13-152A1082.84,1082.84,0,0,0-8.31-34.85c0,.66,0,1.33,0,2-1.16,3.43.34,7-.28,9.82a5.2,5.2,0,0,1,1.21-2.71C9.56-78.08,46.55-110.71,96-131.06c1.09-.45,2.15-.95,3.57-.25-.2,2.15-2.1,3.14-3.35,4.49C77.68-106.68,67.33-83.44,69.89-55.55,71.84-34.36,80.75-15.9,93.38.86c17.06,22.62,38.74,39.72,63.84,52.63.57.29,1.18.49,2.28.94-1.06-9.92-2.37-19.4-3-28.95-3.62-57.37,12.79-108.16,49.82-152.14,12.06-14.33,23.61-28.9,30.08-46.77C242-188.69,243.29-204.17,239-220c-6.78-25.27-29.5-40.09-55.54-36.11-16.57,2.53-29.3,10-34,27.15-5.42,19.72,4.69,38.4,23.06,42.76,7.47,1.77,14.91,1.37,21.88-2.32,5.3-2.8,8.79-7,9.76-13.07a8.6,8.6,0,0,0-4.27-9.34c-3.26-2-6.33-2-9.64.55-5.56,4.31-12.49,3.24-16.29-2s-2.33-12.53,3.42-16.68c13-9.37,34.14-.43,38.42,16.25,6.06,23.58-10.5,46.32-34.83,48.3-39.24,3.18-63.17-29.11-59.6-63.69,2.71-26.27,17.8-43.87,42.61-51.28,31.73-9.48,61.8-5.2,87.39,17.52,14.47,12.84,22.62,29.83,28.43,48,2,6.3,3.63,12.72,4.85,17.07,0-11,.47-24-.1-36.94-.93-20.79-2.79-41.52-6.73-62-1.3-6.73-1.21-6.75-7.74-5.76-11.34,1.71-22.63.69-33.83-1.09a13.07,13.07,0,0,1-10.81-14.52,13.34,13.34,0,0,1,15-10.88c3.27.42,6.52,1,10.19,1.64-.86-3.76-2.09-5.88-6.27-6.39a130.11,130.11,0,0,1-24.24-5.76c-9-2.92-13.66-11.06-11-18.94,2.53-7.51,11.07-11,19.92-8.19,2.37.76,4.69,1.7,7.08,2.42,1.28.38,3,2.4,3.88-.16.76-2.27-.62-3.51-3-4.11a116.61,116.61,0,0,1-19.3-6.7c-5.77-2.58-9.26-8.34-8.71-13.89a12.8,12.8,0,0,1,9.56-11,14.45,14.45,0,0,1,10.24.89c5,2.35,9.87,4.79,14.79,7.23.95.46,1.85.87,2.64-.18s-.14-1.45-.75-1.94c-9.53-7.61-14.93-18.19-20.37-28.68-2.75-5.31-5.19-10.8-7.43-16.35-4.71-11.64.19-21.71,12.17-25.47A8.06,8.06,0,0,1,234.89-463.81Z" transform="translate(762.71 464.19)"/><path class="cls-1" d="M676.21,692.45c8.72-1.41,15-6.29,19.2-13.87,2.08-3.76,4.15-7.62,4.49-12.07a30.31,30.31,0,0,0,0-11.43c-4.6-15.91-18.85-27.33-35.24-30-22.74-3.69-41,5.68-58.42,18.25-14.19,10.21-24.91,23.7-35.29,37.49-6.07,8.07-13.88,14.12-22.31,19.45-16,10.16-33.75,15.75-52.3,19-4.84.83-9.59,2.25-14.55,2.26-2,.86-4.25-.24-6.23.76l-5.77.25c-3.07.91-6.3-.31-9.35.74H426.22c-3.39-1.07-6.93.16-10.33-.72l-7.71-.28c-2-.94-4.26,0-6.29-.72l-5.68-.29c-1.69-.85-3.62,0-5.33-.72l-3.8-.25c-1.63-1-3.55,0-5.2-.77-13-.75-25.69-4.24-38.69-5.25-2-.94-4.27.06-6.31-.73a121.53,121.53,0,0,0-21.07,0c-1.7.71-3.62-.14-5.31.71-28.5,2.89-51.4,14.53-59.21,46a37.08,37.08,0,0,0-.52,5.9,53,53,0,0,0,0,14.61c.66,19.49,16.37,37.23,37.42,39.71,11.67,1.37,21.91-1.67,30.45-9.33a29.44,29.44,0,0,0,8.9-15.92c2.07-9.84,1.24-19-6.68-26.37-6.4-5.93-19.91-9-28.44-4.91-5.82,2.78-9,7.92-8.56,14.26.2,2.69,1.29,4.9,3.69,6,2.18,1,4,0,5.83-1.57,3.14-2.74,6.88-3.34,10.46-1.08a10.44,10.44,0,0,1,4.89,11.16,9.13,9.13,0,0,1-7.36,7.73c-13.93,3.05-26.78-2.41-28.66-17.11a26,26,0,0,1,0-8.93c2.71-18.59,18.33-31.46,39-29.28,22.24,2.34,36.27,16.63,39.36,37.29a49.52,49.52,0,0,1,0,11.92c-2,11.17-5.9,21.55-13.43,30.27C328,835.7,315.84,842,301.2,843.11c-15.42,1.13-30.48-.45-44.39-7.94a69.3,69.3,0,0,1-28.77-29,82.89,82.89,0,0,1-9.35-29.8c-.75-1.72.11-3.66-.73-5.37q0-7.16,0-14.3c.89-1.67,0-3.57.72-5.27a92.05,92.05,0,0,1,17.68-45.08c13.33-18,31.33-28.16,52.87-32.72,4.52-1,9.12-1.63,13.68-2.43,1.66-.72,3.56.21,5.2-.73l5.79-.25a279.17,279.17,0,0,1,28.93,0l8.75.27c2.34,1,4.9-.11,7.25.74l5.63.28c1.71.83,3.65,0,5.37.72l4.69.28c1.69.87,3.62,0,5.32.74l3.74.25c1.66.9,3.58,0,5.26.75l3.74.25c1.65.91,3.58,0,5.26.76a119.2,119.2,0,0,0,21.73,2.24c1.66.88,3.57,0,5.26.71l5.63.3c2.05.91,4.32-.07,6.38.74l6.66.25c4.06,1.11,8.27-.21,12.34.74l12.06,0c3.06-.87,6.28.33,9.32-.72,26.52-1.66,50.68-9,70.35-28.08,15.33-14.9,31.69-28.67,50.78-38.58a124.69,124.69,0,0,1,47.56-13.62,65.43,65.43,0,0,1,13.92,0,76,76,0,0,1,44.82,21c8.34,8,13.18,18,15.39,29.25.72,1.73-.11,3.66.72,5.37,0,1.42,0,2.83,0,4.24-.84,1.69,0,3.6-.69,5.31-2.34,11.35-6.33,21.9-14.9,30.14-12.91,12.42-27.89,15.59-45.07,10.61-11.36-3.3-19.27-9.77-23.31-21-.57-1.6-.2-3.27-1.07-4.7-.8-1.71.11-3.65-.76-5.34v-2.24c.86-1.7,0-3.65.76-5.37,2.93-14.2,10.25-21.7,23.11-22.61,10-.71,22,2.15,26.21,17.62a21.15,21.15,0,0,1,0,7.93c-4.42,10.74-9.89,13.88-18.95,10.9-2.21-.72-4.17-1.75-5.34-3.89a8.29,8.29,0,0,1-.08-4.93c2.57-5,6.81-5.67,10.26-1.62.88,1,1.5,2.87,3.41,2.05s3.49-2.13,3.76-4.25c.56-4.31-1.23-7.37-5-9.65-10.49-6.3-21.62-1.47-23.25,10.27a13.77,13.77,0,0,0,0,7.48c.82,9,8.85,16.15,18.9,16.74A14.37,14.37,0,0,0,676.21,692.45Z" transform="translate(762.71 464.19)"/><path class="cls-1" d="M-265.33,661.38c2.61-14.14,13.29-18.63,26.22-17.53,13.41,1.13,19.77,10.52,23.09,22.52.8,1.72-.09,3.67.77,5.37V674c-.87,1.69,0,3.63-.76,5.34-2,6.52-4.75,12.49-9.88,17.4-6.67,6.38-15,9.2-23.5,10.31-14.37,1.89-27.53-2-37.52-13.15-7.49-8.38-12.43-18.14-13.45-29.58-.66-1.72.14-3.63-.69-5.33v-4.22c.83-1.71,0-3.64.72-5.37,4.28-25.24,21.25-38.64,43.77-46.8,5.3-1.92,10.91-2.52,16.45-3.42a65.43,65.43,0,0,1,13.92,0c28.29,2.53,52.39,14.72,74.37,32,10.72,8.42,20.21,18.21,30.65,26.92,12.91,10.77,28.36,15.91,44.5,19.2,6.29,1.27,12.64,2.59,19.15,2.18,3.05,1,6.27-.15,9.33.71l12.07,0c4.07-.95,8.27.37,12.33-.74l6.67-.25c2.06-.81,4.33.17,6.38-.74l5.63-.3c1.69-.7,3.59.17,5.26-.71,7.32,0,14.52-1.15,21.73-2.24,1.67-.8,3.6.15,5.26-.76l3.74-.25c1.68-.78,3.6.15,5.26-.75l3.74-.25c1.7-.77,3.63.13,5.32-.74l4.68-.28c1.73-.71,3.66.11,5.38-.72l5.62-.28c2.36-.85,4.92.29,7.26-.74l8.75-.27a279,279,0,0,1,28.92,0l5.8.25c1.64.94,3.53,0,5.2.73,16.15,2.73,31.77,6.6,45.7,16.06,20.73,14.09,32,34,37.31,57.85.46,2.1.81,4.22,1.22,6.32.71,1.69-.17,3.6.72,5.27q0,7.15,0,14.3c-.84,1.71,0,3.65-.74,5.36-2.44,12.49-5.89,24.64-13.13,35.32-11.3,16.66-26.81,27.17-46.74,30.39-14.91,2.4-29.69,2.81-43.78-4.69s-22.69-19.39-27.22-34.42a68,68,0,0,1-1.46-8.6,48.51,48.51,0,0,1,0-11.92c1.65-15.59,8.81-27.67,23.63-33.64,16.4-6.61,32.9-6.1,45.3,6.9,5,5.28,7.54,11.85,9.41,18.73a25.51,25.51,0,0,1,0,8.93C142.62,799.12,132.08,802,119.66,801c-4.85-.39-8.83-3.41-9.49-8.26a11.85,11.85,0,0,1,4.8-11.14c3.64-2.72,7.52-1.63,10.78,1.36,1.8,1.66,3.87,2.14,5.91,1,2.92-1.67,3.78-4.52,3.54-7.77-.68-9.21-7.73-13.46-16.45-14.08-10.13-.72-19.31,2.2-24.55,11.61-5.7,10.21-4.57,20.81,1.21,30.63,8.89,15.1,28.27,20.85,45.34,13.52,14.82-6.36,24.94-16.79,27.2-33.5.16-1.23,1.53-2.2,1-3.67a52.12,52.12,0,0,0,0-14.6c-1.94-15.14-8.64-28-20.37-37.51a60.92,60.92,0,0,0-28.08-12.47c-3.76-.67-7.53-1.26-11.3-1.88-1.67-.87-3.59,0-5.28-.72a121.64,121.64,0,0,0-21.08,0c-2,.79-4.28-.21-6.3.73-6.47.75-13,1.13-19.39,2.38a194,194,0,0,1-19.3,2.87c-1.65.81-3.57-.19-5.2.77l-3.81.25c-1.71.73-3.63-.13-5.32.72l-5.68.29c-2,.77-4.27-.22-6.29.72l-7.71.28c-3.4.88-6.95-.34-10.34.72H-40.77c-3-1.06-6.29.17-9.35-.74l-5.77-.25c-2-1-4.23.1-6.23-.76a172.76,172.76,0,0,1-43.42-9.44c-16.06-5.67-30.72-13.85-42.63-26.34-5.9-6.2-10.23-13.62-15.82-20.09a143.24,143.24,0,0,0-34.86-29.74c-13.43-8-27.74-13.59-43.46-11.4-16.29,2.27-30.38,9-37.09,25.74a10.65,10.65,0,0,0-.84,4.84,30.83,30.83,0,0,0,0,11.45c.75,12.85,12.24,25.41,23.7,25.93a14.37,14.37,0,0,0,7.56,0c9.78-1.64,16.7-6.52,18.9-16.73a13.81,13.81,0,0,0,0-7.49c-2.53-11.6-12.7-15.14-21.5-11.78-5.6,2.14-8.55,7.75-6.68,12.46,1.33,3.35,3.28,3.26,5.73,1.44,6-4.42,6.87-4.35,11.6,1.08.23,1.67.88,3.36-.4,4.9a19.87,19.87,0,0,1-7.62,4.33c-7.8,2.38-15.5-2.58-16.35-11.31A21.15,21.15,0,0,1-265.33,661.38Z" transform="translate(762.71 464.19)"/><path class="cls-1" d="M40,389.93c-.09-1.54-.19-3.08-.28-4.62-.94-3.72.37-7.6-.74-11.31q-.13-9.35-.26-18.69c-1-6.09.4-12.28-.73-18.37q-.14-9.81-.28-19.63c-.94-7.43.4-14.94-.72-22.37.81-3.33-.6-6.4-1.49-9.39-1-3.33-4.25-3.72-7.23-3.26-4.09.63-5.67-1.13-5.58-5-.52-1.59,0-3.26-.32-4.84-.66-3.93.66-6.12,4.88-6l17.67-.27c2.69-.88,5.57.33,8.25-.74l5.75-.25c3.08-.89,6.32.3,9.38-.73l17.4-.07c1.32,4.28.68,8.61.34,12.94L85.77,279c-1.83,1.78-4.33.12-6.29,1.23-2.23-.4-3,.63-2.89,2.77.59,20.12-.73,40.25.43,60.37.83,2.4-.24,5,.72,7.37,0,1.34-.57,3.7,1.86,1.37A258.88,258.88,0,0,0,101,329.47c5.26-6.44,10.44-13,14-20.67a63.29,63.29,0,0,0,0-15.8c.49-4.45-1.9-8.45-2-12.83,0-1.23-1.51-2.12-3.09-1.66-4.89.48-4.89.48-5.87-6.53v-3.29c.91-1.85-.57-5.21,3.28-5.23l4.66-.32c2-.74,4.26.24,6.28-.7l10.71-.27c5.09-.94,10.29.38,15.38-.72a149.54,149.54,0,0,0,19.63-.3c1.66-.12,3.43-1.1,4.89.57l0,1.26c-.92,2,0,4.27-.71,6.33.39,5.21-1.75,7.45-7.2,6.91-4.18-.41-7.2.8-5.36,6.24.72,2.12.39,4.6.54,6.92a273.7,273.7,0,0,1,0,28.93v2.07c.83,2.36-.29,4.92.73,7.27l.27,7.73c.87,3.07-.32,6.29.72,9.35l.27,11.65c.95,4.74-.38,9.6.73,14.34l.27,15.66c.94,4.73-.38,9.58.74,14.3.08,3.56.17,7.13.25,10.7.9,3.08-.3,6.32.73,9.39-.19,6.6-.19,6.49,6.36,6.68,3.13.09,7.37-1.55,7.92,3.93.38,3.66.77,7.32-.23,11l-3,.18c-3.05.89-6.26-.33-9.3.73l-20.69.26c-2.41.83-5-.22-7.4.73l-6.61.28c-2.35.86-4.9-.3-7.24.74a6.51,6.51,0,0,0-1-.15c-7.22.1-7.22.11-7.92-6.8-.74-1.71.13-3.63-.73-5.33.25-1.49.62-2.44,2.59-2.78,2.46-.42,5.3-.07,7.3-2.17A32.66,32.66,0,0,0,121,416l-.27-11.65c-.89-3.08.3-6.32-.73-9.38l-.27-16.62c-1-6.09.4-12.28-.73-18.38.63-5.62-1.23-11.05-1.26-16.62-.68-2-.14-4.11-.34-6.16-.1-1,.31-2.49-1.64-1.88-9,10.52-16.62,22.15-25,33.13-1.51,2-2.73,4.24-4.54,5.85C80.77,379,80,384.87,81,391.38c.92,4.4-.34,8.92.73,13.32l.28,9.68c.88,3-.35,6.24.73,9.27,0,3.37-1.08,7.44,4.7,6.8,1.63,1,3.81-.45,5.33,1.15l.21,1.78c.91,2.72-.28,5.64.75,8.35.24,3.55-1.78,4.75-4.94,4.79-2,.79-4.29-.21-6.32.72l-13.67.28c-8,.71-15.95.1-23.92.32-1.8.06-3.66-.36-5.42.41-2.88,0-5.79-.13-8.66.11-2.46.21-3.07-1-3.15-3.05a8.71,8.71,0,0,1,0-4.93c1-2.65-1.8-7.49,4.2-7.21,2-.82,4.22.27,6.2-.75,3.92-2.2,3.64-6.28,3.86-9.78.33-5.09-.14-10.22-.26-15.33-.86-2.34.3-4.9-.75-7.22l-.24-4.78C40,393.59,40.79,391.65,40,389.93Z" transform="translate(762.71 464.19)"/><path class="cls-1" d="M-14,281.31c-.91,5.45-5.84,4.08-9,4.69-2.85.54-3.7,1.24-4.37,4-3.34,13.74-8.12,26.79-18.71,36.95-4.64,4.45-8.75,9.07-15.7,10.37-7.48,1.39-14.68,4.06-20.08,10-1.36,1.5-2.49,2.38-.56,4.74a10.24,10.24,0,0,1,1.33,11.63c-1.4,2.65-.18,3.4,1.89,4.31a123.92,123.92,0,0,0,39,10.26,11.8,11.8,0,0,1,7.92,3.54c6.29,6.48,10.92,14.1,15.17,22,5.07,9.44,10,19,16.39,27.64,2.21,3,4.31,4.47,8.26,3.38,2.31-.63,5.17-1.53,7.52.55.75,2.06-.2,4.31.7,6.36a11.21,11.21,0,0,0-.08,2.45c.87,4.84-1.09,6.73-5.91,6a10.64,10.64,0,0,0-2.93.36c-1.67.78-3.59-.18-5.23.75l-13.77,1.24c-2,.87-4.23-.26-6.2.77l-4.81.27c-1.68.72-3.58-.19-5.23.72-3-.76-5.76.87-8.72,1s-4.81-.47-4.84-3.8a14.23,14.23,0,0,0-1-4.68c-1.64-4.25-1.79-6.84,3.9-6.73,1.85,0,2.25-1.27,1.45-3.17q-8.53-20.26-16.87-40.63c-1.62-3.93-5.6-3.13-8.39-3.66-8.57-1.64-16.56-4.73-25.1-8.47.36,5.33.69,10.32,1,15.3.78,2-.23,4.27.72,6.28.1,1.57.19,3.15.28,4.72.77,1.64-.23,3.55.76,5.16.54,9.4,1.6,18.72,4.22,27.81a9,9,0,0,0,6.17.09c7.94.21,8.46.75,8.49,8.9,0,4.87-1.68,6.42-6.67,6.75-4.08.26-8.13.94-12.19,1.44-1.69.72-3.6-.17-5.27.72l-4.72.26c-2,.82-4.27-.22-6.28.74l-5.73.28c-2,.8-4.23-.26-6.21.74l-4.78.24c-2,.83-4.25-.25-6.24.75l-6.9.05c-.8-1.63.23-3.54-.77-5.14-.27-1.07-.6-2.12-.78-3.2-.71-4.32.33-7.23,5.48-7.39a12.78,12.78,0,0,0,7.24-2.47,8.49,8.49,0,0,0,.08-6c-.08-1.92-.17-3.84-.25-5.76-.85-2.37.27-4.93-.74-7.29-.09-2.23-.17-4.47-.26-6.71-.88-2.71.3-5.6-.74-8.29l-.26-7.71c-.91-3,.35-6.23-.75-9.25l-.27-8.75c-.82-2.74.29-5.65-.71-8.38-4.78-2.07-8.25-5.29-9.3-10.63a21.1,21.1,0,0,1,0-7.92,7,7,0,0,1,3.76-5.94c2.57-1.55,3.22-3.45,2.23-6.12-.8-1.67.18-3.59-.76-5.23l-.23-3.77c-.76-1.72.09-3.67-.74-5.38l-.28-4.63c-.76-1.68.16-3.6-.74-5.27l-.24-3.72c-.82-1.66.18-3.58-.77-5.22-.65-4.19-.91-8.5-2.05-12.56s-4.73-3.69-8.07-3a10,10,0,0,1-4.92,0c-2.08-3.57-.06-7.59-1.21-11.26-.56-1.7-.57-3.2,1.52-3.86,3.32.29,6.47-.67,9.68-1.25,1.67-.81,3.6.15,5.26-.76l4.75-.29c1.7-.69,3.62.15,5.3-.7,7.33.16,14.48-1.43,21.7-2.3,1.71-.69,3.62.15,5.31-.7,8,.17,7.6.22,8.76,8.23.71,4.94-.21,7.37-5.55,7.86-4.76.44-6.8,3-5,8.12,1.08,3,1.09,6.47,1.58,9.72.77,1.67-.17,3.59.75,5.24l.28,4.76c.71,1.7-.16,3.61.71,5.28l.27,4.72c1.08,1.08-1,3.44,1.6,3.91,6-5.45,12-10.89,19.07-14.83,3.49-1.94,6.71-3.93,6.86-8.35.1-2.91,1.91-5.5,1.38-8.48a38.67,38.67,0,0,0,0-12.61c-.08-.14-.17-.41-.23-.41-7.26.85-8-3.91-8-9.3-.24-2-1-4.05.52-5.89,10.33-.13,20.48-2.07,30.7-3.27,3-.86,6.21.37,9.22-.72,3.69.35,7.19-.82,10.78-1.27,2-.32,4-.82,5.93.35a1,1,0,0,0,.18.87A32.41,32.41,0,0,1-14,281.31Z" transform="translate(762.71 464.19)"/><path class="cls-1" d="M-411.33,431.38c0-9,2.54-17.55,4.5-26.19,1.17-5.13,4.5-9.32,7.19-13.76,11.18-18.4,22.29-36.85,32.13-56,2.77-5.4,3.94-11.19,4.53-17.17.26-2.68.87-5,4.53-5,2.44,0,4.89-.71,7.34-1.11a34,34,0,0,1,9.92,0c10.25,2.79,20.32,6,27.63,14.38a85.43,85.43,0,0,1,13.39,21.27c3.86,8.61-2,20.93-10.88,23.77-2,.66-4.09,1.29-6.14,1.93a30.64,30.64,0,0,1-9.93,0c-6.14-6.37-7.52-15-10.86-22.75a41.55,41.55,0,0,0-10.87-15.48c-2.52,7.55-4.74,14.83-7.39,22C-361,370-366,382.64-370.85,395.38c-.93,2.45-1.88,5-1.38,7.72-1.06,2.32.11,4.87-.75,7.21,0,3.69,0,7.38,0,11.07.8,2-.3,4.2.75,6.15.43,12.77,5.35,24.09,11.64,34.85a97.31,97.31,0,0,0,14.93,19.19c2.44,2.48,4.05,2.92,7.4,1.11,7.83-4.23,14.51-9.64,17.17-18.12,2.17-6.93,4.71-14.3-.86-21.52-4.46-5.77-2.89-14.71,6.5-16.41,10.2-1.86,20.66-2.74,30.12-7.61,2.77-1.43,2.09,1.18,2.3,2.21,1.83,9,.87,17.91-1.63,26.56-6.63,23-20.89,40.2-41.11,52.76-4.1,2.55-8.56,4.13-12.8,6.27-7.12,3.58-14,1.57-20.74-1.2-19.34-7.92-35.06-20.26-45.34-38.63a54.9,54.9,0,0,1-6.7-25.68A33.39,33.39,0,0,1-411.33,431.38Z" transform="translate(762.71 464.19)"/><path class="cls-1" d="M-270.32,407.38c-.21-12.09,3.55-23.44,7.69-34.43,2.46-6.54,7.51-12.16,11.61-18,11.1-15.92,21.72-32.14,31.3-49a30.34,30.34,0,0,0,3.65-11.38c.67-5.81,2.87-8.86,8.95-8.32a41.23,41.23,0,0,1,10.93,0c16.74,3.28,29.52,11.87,36.78,27.71,2.62,5.69,6.7,10.71,5.4,17.9-1.93,10.69-8.34,16.92-19.36,17.43-9.39.44-13.16-2.82-15.56-12.6-2.45-10-5.58-19.7-13.44-27.79-2,5.33-3.7,10.53-5.87,15.52-6.21,14.32-12.62,28.55-18.94,42.82A33.21,33.21,0,0,0-230.25,383c-1,2.7.14,5.6-.73,8.31,0,1.69,0,3.38,0,5.07.82,2.38-.26,4.95.72,7.32.74,17.2,8.24,31.69,18.11,45.23.49.67,1,1.32,1.57,1.95,8,9.21,5.53,9.76,16.64,2.8,8.76-5.5,14.5-13.14,14.88-24,.54-3,.86-6-.11-9-7.21-7.51-4.81-15.91,5.26-18.37,1.91-.47,3.86-.8,5.79-1.19,2.36-.82,4.91.29,7.26-.72,6.83,0,13-2.56,19.16-5,2.12,5.21.78,10.59.7,15.9-7.41,37.37-29.94,60.68-66.2,71.23a8.21,8.21,0,0,1-4.93-.08c-10-2.76-18.78-7.92-27-13.9A81.67,81.67,0,0,1-266.7,433.8a50.64,50.64,0,0,1-3.63-19.49A16.36,16.36,0,0,1-270.32,407.38Z" transform="translate(762.71 464.19)"/><path class="cls-1" d="M201.66,331.38c1.07-15.05,6.93-28.7,12.33-42.51,6.49-16.64,20.16-25,35.61-31.41,4.64-1.92,9.66-1.9,14.63-2,1.41,0,2.84.07,3.32,1.54,2.22,6.68,8,10.42,12.49,15.17,6.35,6.7,14,12.28,18.14,20.91,5.24,10.81,1.27,18.87-10.57,21.15-1.27.25-2.51.94-3.76.95-3,0-6.44.7-8.78-.58-2.87-1.59,0-5.62-1.42-8.33-.83-2.3.37-4.82-.75-7.1-4.11-9.4-13.64-13.17-20.53-19.69-1.28-1.21-2.68.4-3.72,1.47-7.34,7.54-10,16.8-9.89,27a67.63,67.63,0,0,0,0,16.64c-.08,2.58-1.11,6.09,1,7.34s4.54-1.57,6.75-2.81c5.58-3.13,11.14-4.31,17.68-2.22a78.88,78.88,0,0,1,19.28,9.75c4,2.64,6.09,6.94,7.26,11.46,2.51,9.72,1.85,10.65-7.93,12.84-1.93.43-3.89.8-5.86,1-4,.5-7.8,1.14-9.43-4.36-.79-2.66-3.19-4.88-5-7.2-2.81-3.61-5.53-4.34-10.43-2.31-8.12,3.37-11.09,7.95-8.61,16.43.76,2.61.21,5.6.26,8.42-.89,1.67,0,3.57-.71,5.26-2.88,17-8.28,33-18.16,47.36,1.48,1.11,2.76.61,4,.49,1.73-.7,3.65.12,5.36-.7,15.14-.51,32.86-12.72,37.47-26.88,1.78-5.46,4.53-7.59,9.87-8.25,7.56-.93,15.05-2.41,22.66-3,2.79-.23,3.47.71,3.69,3.54,1,12.74-4.33,21.68-14.81,28.74-17.25,11.62-36.11,18.74-56.36,22.65a30.32,30.32,0,0,1-3.94.26c-2,.83-4.26-.24-6.26.75l-15.33,0c-3.39-1.06-6.95.19-10.35-.72h-1.06c-3.42.92-7-.33-10.38.74-1.54-.41-1.5-1.77-1.77-2.94a21.36,21.36,0,0,1,0-7.93c-.26-3.39.89-5,4.71-5,11.19.2,15.21-8,16.54-16.46.64-4.07,1.95-8.36.75-12.64-.81-1.61.26-3.52-.79-5.09-2.27-11.27-5.21-22.41-6.2-33.91-.8-1.64.2-3.56-.77-5.18l-.27-4.82A111.81,111.81,0,0,1,201.66,331.38Z" transform="translate(762.71 464.19)"/><path class="cls-1" d="M412.66,427.38c.09-1.27.17-2.55.26-3.82,1-1.62-.05-3.54.78-5.18.09-1.22.17-2.43.26-3.64.83-1.71,0-3.64.72-5.36l.27-13.63c1-3.06-.17-6.3.74-9.37l.26-6.64c.92-2-.06-4.3.73-6.36l.27-5.65c.84-1.7,0-3.62.71-5.35l.3-5.63c.82-1.71,0-3.64.71-5.37l.29-5.6c.81-1.73,0-3.66.7-5.4l.27-5.78c1-2.32-.1-4.87.73-7.22.1-2.88.19-5.77.29-8.65.91-6.62.16-13.27.42-19.9.07-1.82-.29-3.66.31-5.45,1.26-4.78-3.36-3.22-5-3.89-3.58-1.47-7.69-1.71-11.6-2.35-3.3-.54-5.08.56-4.1,4.24a103.24,103.24,0,0,1,0,17.93l-1.17,4a6.68,6.68,0,0,1-5,.13c-3.86-.56-7.65-1.23-8.93-5.77a10.13,10.13,0,0,0-.07-6.46c-3.05-7.2-8-13.69-8.23-21.95-.69-1.69.17-3.59-.71-5.26.69-8.81.69-8.8,10.11-8.49,1.13,0,2.27-.07,3.41-.1,2.38,1,5-.1,7.35.72l6.63.28c1.72.82,3.64,0,5.37.7,6.54.78,13,2.57,19.62,2.31,1.72.82,3.66,0,5.39.72l6.69.26c3.71,1.1,7.58-.19,11.3.73l14.66.28c2,.91,4.28,0,6.34.7l5.66.3c1.7.85,3.63,0,5.35.74l4.69.25c2,.95,4.27-.08,6.31.75l15.64,2.21c2.5.35,3.13,1,2.86,4.16-.86,10.12-5.85,17.14-13.86,22.78a24.62,24.62,0,0,0-9.49,13c-1.5,5-5.08,2.27-7.78,2.75-3.1.56-3.54-2-3.87-4-1.06-6.7.17-13.32,1.21-19.91a7.21,7.21,0,0,0,0-3.83c-6.35-1.14-12.75-.24-19.13-.5-1.83-.08-2,1.13-2.09,2.6-.08,2.62.36,5.26-.28,7.86l-.28,11.7c-1.06,3,.16,6.25-.73,9.3-.09,2.54-.18,5.09-.28,7.63-.9,2.05.05,4.3-.71,6.37l-.28,5.68c-.85,1.69,0,3.61-.72,5.32-.72,4.25-1.6,8.48-1.25,12.83-1,1.61.05,3.54-.79,5.18-.08,1.21-.16,2.42-.25,3.64-.83,1.7,0,3.63-.72,5.35l-.27,7.65c-.93,10.4-.36,20.81-.36,31.21,0,8.07-.67,16.17.44,24.22,2.05,2,4.66,1.15,7,1.11,3-.05,4.63,1,5.21,3.88a36.83,36.83,0,0,1-.14,12l-5.64-.13c-1.7-.83-3.61,0-5.33-.7l-5.73-.29c-3.7-1.1-7.56.2-11.28-.73l-6.63-.28c-1.71-.82-3.63,0-5.36-.7l-5.7-.29c-1.68-.86-3.6,0-5.3-.71l-4.8-.27c-1.64-.94-3.54,0-5.2-.72-.65-.1-1.29-.23-1.94-.29-5.73-.52-6.31-.68-4.86-6.06.82-3-.68-7.46,3.8-9.05,3.34-.86,6.82.37,10.14-.74.6,0,.91-.3.87-.91C412.92,430.91,411.89,429,412.66,427.38Z" transform="translate(762.71 464.19)"/><path class="cls-1" d="M-444,442.31c-.35,2.43-.65,4.87-1.06,7.28-.24,1.43-.14,2.41,1.45,3.1,4.81,2.06,7.28,6.31,9.56,10.69a11.91,11.91,0,0,1,.05,5.93c-1.16,3.37-2.25,6.78-6,9.35,2.76.69,4.6,1.24,6.46,1.6,12.52,2.44,20.82,11.51,20.92,24.42.09,11.22-5.3,21.14-18.8,25.62-1.57.53-3.22.81-4.83,1.21a16.31,16.31,0,0,1-6.92,0c-16.76-1.67-25.78-14.73-23.75-30.88a22.77,22.77,0,0,1,8.21-14.31c2-1.63,3-2.44-.18-4.74-7.28-5.21-9.11-11.55-5.94-20.37,1.17-3.25-.14-4.58-2.34-6-8.56-5.58-17.42-10.71-24.25-18.6-14.56-16.79-30.29-32.56-43.85-50.21-3.3-4.28-7.33-4.24-11.64-2.82-2.32.77-2.61,0-3.29-1.95-3.78-11.19-3.94-11.38,7-14.73,12.12-3.69,24.61-6.09,36.55-10.42,1.29-.46,2.9-1.82,3.55,1.27,1.82,8.74,7.42,15.28,13.33,21.59,9.22,9.82,18.35,19.72,27.56,29.54.86.92,1.59,2.53,3.05,2.27,1.85-.35.88-2.14,1.14-3.31,3-13.64,6.08-27.27,9.09-40.92,4-18.2,15.5-29.78,32.28-36.86,2.15-.91,2.36.22,2.65,1.42.46,1.92.63,3.92.92,5.89.72,12.88.12,25.77.3,38.66,0,1.61-.09,3.16-2.44,2.48a58,58,0,0,0-6.66-1.17c-5.9-1.06-8.42,3.85-10.76,7.83-5.06,8.61-6.9,18.35-8.58,28.06-.67,3.88-1.55,7.78-1.13,11.78-.88,1.68,0,3.6-.73,5.29l-.28,5.64C-444.16,438-443.21,440.25-444,442.31Z" transform="translate(762.71 464.19)"/><path class="cls-1" d="M1031.42,389.35c19.63,4.78,38,12.74,56.87,18.93,1.87.61,3,1.39,1.73,3.53a9.62,9.62,0,0,0-.45,1.92c-3,9-3.07,9.34-12,6.33-3.54-1.2-3.09,1.16-3.7,2.59a889.25,889.25,0,0,0-32.11,89.16c-4.69,15.42-9.88,30.68-14.86,46-.86,2.63-.85,4.8,2.36,5.73a19,19,0,0,1,1.78.83c7.66,3.08,8.85,8.51,3.19,14.93-1.06,1.2-2.15,1.62-4.12.92-15.23-5.45-30.55-10.62-45.84-15.9-5.17-1.79-5.35-2.42-2.61-7.16.83-1.42,1.92-2.87,2.14-4.41.5-3.59,2.27-4,5.17-2.71s4.43-.1,5.58-2.82c4.4-10.28,7.31-21,10.59-31.69,6.84-22.19,14.28-44.2,21.31-66.34,4-12.6,7.75-25.27,11.44-38,.58-2,.26-3.88-2.53-5-7.25-3-7.47-3.48-5.23-11.16C1030.67,393.21,1031,391.31,1031.42,389.35Z" transform="translate(762.71 464.19)"/><path class="cls-2" d="M418,597.93c-.09-2.87-.19-5.75-.28-8.62-.86-2.71.31-5.6-.73-8.29V573.8l-1.13-.32c-6.58,12.23-13.15,24.45-20.43,38-5.74-13-11-25.05-16.65-37.83-2.81,4.82-2.54,9.67-3.81,14s-1.88,8.66-2.92,13c-.81,3.39,0,6.51,1.25,9.6-2.39-1-5,.11-7.37-.73l-7.77-.78c8-2.84,8.43-9.17,9.81-14.81,2-8.22,3.57-16.55,5.7-24.74a7.63,7.63,0,0,0-1.7-7.73h9.54c2,1.09,4.46-.5,6.32,1.2-2.49,1-2.42,2.93-1.57,4.89,3.7,8.57,7.49,17.1,11.64,26.53,5.4-9.3,11-17.34,15.37-26.19.88-1.76-.53-1.73-.57-2.57.8-2.49,2.64-1.25,4.16-1.16,3.39.56,6.94,0,10.31,1.66-1.62,1.9-1.67,4.19-1.09,6.57.7,1.73-.12,3.65.71,5.36l.3,5.64c.69,1.72-.14,3.64.7,5.33l.3,5.67c.7,1.71-.15,3.62.71,5.31.18,4.78-.88,9.77,3.86,13.46,1.32,1-1.11.48-1.47,1.11-2.34-1-4.89.09-7.25-.72l-9.74-1c1.66-1.31,3.34-1.52,3.72-3.17A30.16,30.16,0,0,0,418,597.93Z" transform="translate(762.71 464.19)"/><path class="cls-1" d="M230,842.3c-4.89,12.87-10.87,17-22.18,17-9,0-17.52-8.93-18.21-17a17.66,17.66,0,0,1,0-6.91c1.27-9.43,8.72-15.86,18-16.85,8.77-.92,18.08,4.87,21.1,13.13.44,1.23.84,2.48,1.26,3.72A17.47,17.47,0,0,1,230,842.3Z" transform="translate(762.71 464.19)"/><path class="cls-2" d="M147.84-73a20.54,20.54,0,0,1-20.58,20.15C116.13-53,106.89-62.52,107.1-73.5a20.6,20.6,0,0,1,20.67-20.1A20.46,20.46,0,0,1,147.84-73Z" transform="translate(762.71 464.19)"/><path class="cls-2" d="M251.18,557.44l5.67-.1c1.07,8.25.17,16.55.5,24.82.14,3.46-.55,7,.44,10.38.53,6.74,4.29,8.92,10.28,6.17,8-3.66,11.72-9.94,11.93-18.51.09-3.65,0-7.31,0-11-.05-4.28-1.08-8.05-5.49-9.94.91-1.4,2.35-.55,3.37-1.11,2-.81,4.29.21,6.3-.74l5.67-.11c1.08,7.94.18,15.92.49,23.88.23,5.8-.54,11.62.43,17.4-.6,3.58,1.61,5.31,4.42,7.33a49.42,49.42,0,0,0-5.71,0c-5.43.63-9.53-.06-9.57-7.05,0-3.13-1.87-1.15-2.93-.36-5.15,3.85-10.2,7.68-17,8.46-6.44.74-12.92-4.74-12.86-11.29.07-8-.1-16,.1-23.91.13-5-.51-9.58-5.6-12.92l3.24-.72C246.91,557.37,249.17,558.39,251.18,557.44Z" transform="translate(762.71 464.19)"/><path class="cls-2" d="M17.17,563.44c6.94-.05,6.93,0,8.69,7.3A18,18,0,0,0,27,573.37c.58,1.18.46,2-1.05,2.27-3.17-3.51-6.78-6.19-11.75-6.38a15.26,15.26,0,0,0-7.71,0C.57,569.74-1,571.3-1,576.38c.84,2.39-.25,5,.73,7.34q.12,3.33.26,6.66c.84,2.4-.23,5,.73,7.38.12,5.59-1.49,11.77,6.48,15.09l-5.41.68c-2.37.82-4.93-.28-7.29.72h-10.3c6.39-2.21,6.15-6.69,6.46-10.94-.83-2.4.23-5-.73-7.38q-.13-3.81-.29-7.62c-.82-2.36.29-4.92-.72-7.26-.12-5.58-.86-10.87-6.54-13.83,1.67-2.78,4.71-.41,6.76-1.78l6.72-.27c2.38-.83,4.94.27,7.3-.73l6.7-.27C12.26,563.34,14.82,564.44,17.17,563.44Z" transform="translate(762.71 464.19)"/><path class="cls-2" d="M-221.36,3.74A12.18,12.18,0,0,1-209.13-8.67,12.17,12.17,0,0,1-196.8,3.65,12.44,12.44,0,0,1-209,16.15,12.41,12.41,0,0,1-221.36,3.74Z" transform="translate(762.71 464.19)"/><path class="cls-2" d="M392.27-13.59A15.79,15.79,0,0,1,376.52-30a15.86,15.86,0,0,1,15.94-15.7,16.2,16.2,0,0,1,16.16,16.15A16.12,16.12,0,0,1,392.27-13.59Z" transform="translate(762.71 464.19)"/><path class="cls-2" d="M606.91-23.25a12.49,12.49,0,0,1-12.3,12.48,12.76,12.76,0,0,1-12.5-12.43,12.6,12.6,0,0,1,12.43-12.42A12.39,12.39,0,0,1,606.91-23.25Z" transform="translate(762.71 464.19)"/><path class="cls-2" d="M325.21-247.63a12.5,12.5,0,0,1,12.63,12.17,12.56,12.56,0,0,1-12.15,12.68A12.75,12.75,0,0,1,313-235,12.59,12.59,0,0,1,325.21-247.63Z" transform="translate(762.71 464.19)"/><path class="cls-1" d="M748.54,480.34c3.78-4,3.12-9.41,4.21-14.11,3.14-13.61,7.06-27,10.08-40.64,5.38-24.28,13-47.93,18.94-72a120.89,120.89,0,0,0,2.07-13.84c.32-2.61-1.42-3.59-3.65-4.44-9.42-3.61-9.32-3.66-6.16-13.4,1-3,2.57-4.26,5.63-3.45,21.29,5.57,43.22,8.51,64.07,16,10.58,3.79,15.74,11.74,19,21.63-.87,1.68,0,3.61-.74,5.31-2.27,9.93-4.44,19.88-6.93,29.77-1.08,4.31-3.29,6.06-7.07,7.06-6.67,1.76-13.33,3.57-20,5.48a22.1,22.1,0,0,0-4,2c-3.69,2-3.56,3.47-.11,6.08,6.15,4.64,13.1,7.57,20,10.68a6.19,6.19,0,0,1,4.09,5.36c2.49,14.51,3.37,29.23,5.76,43.74,1.15,7,2.21,14,3.33,21,1.41,8.82-.42,17.07-4.55,24.84-1.82,3.43-4.16,4.21-8.49,3.18-13.29-3.15-26.63-6.08-39.85-9.51-10-2.58-19.83-5.51-29.84-7.86-12.35-2.9-24.8-5.33-37.2-8-2.76-.59-5.88-1.1-3.24-5.22a6.15,6.15,0,0,0,.57-2.81c.35-5.84,3.46-7.89,9-6.66C745.23,480.92,746.9,481.33,748.54,480.34Zm41.37,7.36c-.16,1.88.53,2.72,2.43,2.9,9.57.9,19,3.4,28.78,2.19,3.06-.37,3.62-1.51,3.87-4.31,1.42-15.72-.69-31.25-2.18-46.83a5.37,5.37,0,0,0-1.89-3.89,280.5,280.5,0,0,1-22.21-20.95C794.3,441,791.91,464.34,789.91,487.7Zm39-107.11a4.37,4.37,0,0,0,1.35-2.53c1.61-6.78,3.23-13.57,3.67-20.56.1-1.63.39-3.33-1.27-4.53-3.09-2.23-6.08-4.62-9.24-6.75s-5.34-1.89-6.58,2.58c-4.35,15.76-9.07,31.42-14,48.37C812.22,391.22,820.6,386,828.91,380.59Z" transform="translate(762.71 464.19)"/><path class="cls-1" d="M716,417.31c-1.15,9.55-3.32,19-3.3,28.68-.84,1.69,0,3.61-.71,5.32q-.13,2.88-.26,5.76a57.73,57.73,0,0,0,.07,16.29c1.89,2.51,5,1.91,7.51,2.72,2.33.76,3.71,1.74,4.4,3.94-.9,1.67.06,3.62-.77,5.3-2.41,6.77-3.86,7.06-13.9,4.7A235.58,235.58,0,0,0,680,485.21c-4.8-.51-9.47-2.07-14.22-3.09-1.34-.29-2.22-.75-1.68-2.29,1.1-3.16,2.15-6.34,3.41-9.44.47-1.17,1.29-2.35,3-2,6.68,1.23,6.49-3.32,6.46-7.72,1-2-.08-4.24.74-6.26.09-2.25.17-4.49.25-6.74a95.22,95.22,0,0,0-.08-21c-5.86-.68-10.75,2.53-16,4.12-14,4.25-23.71,14.55-33.45,24.65-2.24,2.32-4,5.16,1.81,5.11a19.66,19.66,0,0,1,4.81,1.05c2.22.58,3.23,1.82,2.65,4.28-.68,2.87-1.15,5.8-1.59,8.73-.35,2.37-1.73,3-3.84,2.54-13.2-2.76-26.5-4.95-39.84-6.91-4.09-.6-8-2.11-12.15-2.68-2.9-.4-3.52-2-3.17-4.24a76.58,76.58,0,0,1,2.15-9.34c.57-2,2.39-1.64,3.77-1.16,10,3.45,15.68-2.18,21.8-9.14,8.47-9.64,16.36-20,26.89-27.67.85-.61,2-1.29,2-2.66a32.42,32.42,0,0,1,0-9.93c1.81-21.28,14.08-36.06,29.74-49.1,7.92-6.6,16.21-12.92,22.93-20.87a15.36,15.36,0,0,0,3.23-14.07c-2.36-1-4.76-.58-7.15-.12-3,3.13-3.71,7.24-4.58,11.22-2,9-7.47,14.35-16.26,16.55-4.07,1-11.19-4.86-11.64-9.57-.85-8.86,1.32-12.84,9.29-16.48,2.55-1.16,1.78-2.24.82-4.17-2.14-4.28-4.75-8.41-1.48-13.7a10.3,10.3,0,0,1,7.31-4.93,9.44,9.44,0,0,1,4.92,0c14.49,3.9,29.43,5.41,44.12,8.21,9.18,1.74,18.37,3.44,27.57,5.16-1,4-1.89,7.65-2.72,11.3-.77,3.34-2.8,3.95-5.83,3.07-6.77-1.94-6.8-1.9-8.47,4.65-1.55,6.07-2.92,12.16-2.73,18.48-.88,1.68,0,3.6-.74,5.29l-.27,4.64c-.91,2,.08,4.31-.73,6.36l-.26,5.7c-.94,2,.06,4.26-.72,6.3-.09,1.9-.19,3.79-.28,5.69-.86,1.68,0,3.6-.72,5.31-.09,1.27-.17,2.53-.26,3.8-1,1.63,0,3.55-.76,5.2l-.27,4.63c-.83,1.71,0,3.64-.72,5.37-.09,1.58-.17,3.17-.26,4.75C715.86,413.72,716.76,415.62,716,417.31Zm-49-33.39a47,47,0,0,0-4.16,16.3c-.33,4.45.69,7.06,5.9,6.16,3.1-.54,6.26-.64,9.39-1,2.32-.23,3.39-1.48,3.73-3.86.7-4.92,1.86-9.77,2.56-14.7,1.45-10.26,4.62-20.31,4.26-31.81C679.23,363.84,672,373.06,667,383.92Z" transform="translate(762.71 464.19)"/><path class="cls-1" d="M982,508.31q-.12,4.38-.26,8.74c-1,2,0,4.23-.72,6.26-1.07,6.34-2.26,12.66-3.18,19-1.06,7.36-6.64,11.1-11.81,15.16-1.29,1-2.77-.14-4-.57-24.36-8.6-48.93-16.53-73.78-23.59-6.66-1.89-13.23-4.1-19.89-6-3.6-1-5.53-2.36-3.41-6.4a19.29,19.29,0,0,0,1.09-2.62c2.37-7.28,2.5-7.58,9.57-4.82,4.55,1.77,6.09.18,7.4-3.89,6.19-19.22,12.75-38.32,18.84-57.57,4.64-14.66,9.86-29.1,14.71-43.68,3.65-11,5.93-22.39,8.48-33.69.89-3.92-1.68-5.46-4.55-6-4.9-1-4.91-3.64-3.56-7.44,3.13-8.8,3.16-9,12-5.87,15.31,5.51,30.91,10.07,46.46,14.8,2.92.89,3.54,1.74,1.87,4.21a13.25,13.25,0,0,0-1.09,2.2c-3.56,8.12-3.62,8.34-12.22,6.16-2.5-.63-3.16.68-3.8,1.95A325,325,0,0,0,944,422.84c-1.06,3,0,3.7,3.18,2.93,8.66-2.07,17-1.42,24.86,3.4,5.14,3.15,7.43,7.59,6.67,13.32a14.9,14.9,0,0,1-10,12.51,15.12,15.12,0,0,1-1.93.48,8.24,8.24,0,0,1-4.94,0c-4.65-.57-7.45-3.56-9.55-7.41-.69-1.27-1-3.22-2.93-2.61a4.34,4.34,0,0,0-2.61,3.35c-1.7,7,.84,12.94,7.38,16.79,6,3.53,12.61,5.37,19.36,6.9,7.83,1.78,7.8,1.92,8.48,9.84A215.7,215.7,0,0,1,982,508.31ZM955.55,492c0-1.63.39-3.27-1.53-4.32-7.53-4.12-13.55-10.16-19.78-15.91-2-1.87-3.18-2.07-4,1-4.19,16.42-8.21,32.88-11.23,49.57-.37,2,.09,3.1,2.19,3.57,9.71,2.19,19.27,5.19,29.44,4.57,2.24-.14,3.11-.71,3.45-3,1-6.79.69-13.62,1.41-20.43C955.55,502,955.54,497,955.55,492Z" transform="translate(762.71 464.19)"/><path class="cls-1" d="M-577.18,384.22c16.15,5.74,23.55,18,26.08,34.24,2.24,14.38-.18,28.33-3,42.32a5.18,5.18,0,0,1-4.4,4.59q-10.83,2.72-21.55,5.9c-10.79,3.23-13.09,5.81-7.63,20,1.3-2.49,2.38-4.9,3.75-7.13A11.36,11.36,0,0,1-572,478.63c5.59.84,9.58,4.56,11.67,9.81,1.8,4.51.81,8.53-2.59,12.31-6.48,7.19-15,9.14-24.35,9.82a254.66,254.66,0,0,0,16.34,37.32c1.32,2.49,3.37,3.39,6.24,1.77,3.26-1.84,5.3-1,7,2.76,4.44,9.77,4.65,9.58-5.87,13-13.48,4.38-26.48,10.12-40.1,14.19-4.36,1.31-7.13,1.51-8.32-3.6-.35-1.51-1.4-2.85-2-4.32-1.19-2.84-.79-4.78,2.43-6.31,7.72-3.7,7.82-4.14,5.47-12.18-4.32-14.74-10.14-28.92-15.95-43.14-6-14.61-11.06-29.6-16.64-44.38-5-13.09-9.3-26.38-13.56-39.7-1.16-3.64-3.59-4.52-7.35-3.21-7.06,2.48-7.21,2.34-9.36-4.59-.77-2.47-3.52-5.15-2.09-7.26,1.24-1.82,4.54-2.39,7-3.19,24.59-8,48.62-17.7,73.89-23.52,2-.86,4.33.17,6.38-.76h1.17C-580.86,384.3-578.89,383.4-577.18,384.22Zm-11.7,70.07c7.36-2.31,10.86-6.74,11.48-14.53.77-9.54,1.95-18.94-4.25-27.27-1.57-2.11-3.15-4.32-6.34-4.17-9.45.47-18.91.82-28.36,1.3-2.4.13-3.81.78-3.12,4,3.68,17.24,9.94,33.61,16.33,50.89A27.86,27.86,0,0,1-588.88,454.29Z" transform="translate(762.71 464.19)"/><path class="cls-1" d="M582.82,381.22a14.17,14.17,0,0,1,8.91,10.27c2.29,8.79-2.24,14.69-12.92,17a26.25,26.25,0,0,1-8.93,0,27.24,27.24,0,0,1-3.86-.62c-8.34-2.58-8.33-2.61-8.27,6.09-1,2.37.1,4.95-.73,7.34-.17,6.75-.52,13.49-.45,20.24.09,8.68.24,8.68,8.95,8.86,1.84,4.46.54,9.1.69,13.65.07,2.23-1.82,1.85-3.33,1.44l-3.76-.24c-1.65-.92-3.56,0-5.23-.73l-12.63-1.29c-1.71-.83-3.66,0-5.38-.74l-3.8-.23c-1.63-1-3.54,0-5.2-.76a159.48,159.48,0,0,1-17.53-2.4c-1.4-.23-1.43-.94-1.7-1.81a26.71,26.71,0,0,1,.06-8.92c.58-2.09.16-4.49,3.69-4.8,8.93-.79,9.35-.9,11.12-9.66,1.67-8.33,2.31-16.87,3.41-25.31,1-2-.06-4.22.73-6.23.1-2.24.19-4.49.28-6.73,1-2.35-.09-4.9.71-7.27q.15-3.36.29-6.72c.88-1.67,0-3.58.71-5.27q.15-2.89.28-5.77c1-2-.07-4.23.75-6.24l.27-4.71c.88-1.68,0-3.6.73-5.29,1.07-10.52,1.84-21.08,3.31-31.54,1-7.51,1.55-15.21,3.28-22.5,1.36-5.78-2.19-5.34-4.87-6-7.95-1.89-6.67-1.75-6.8-9.66-.16-9.46,6-5.37,9.94-6.26,1.67.88,3.58,0,5.27.71,20.37,3.91,41.07,5.47,61.5,9.06,17.13,3,29.11,10.76,31.69,29.17a46.63,46.63,0,0,1,0,11.92c-3.6,16.53-12.43,30.36-22.41,43.62-2.7,3.59-5.67,4.94-10.53,3.65-7.6-2-15.47-3.09-23.28-4.23s-11.89,4.75-10.7,15.05c3.23-2.35,5.6-5.82,9.76-6.21A11.29,11.29,0,0,1,582.82,381.22Zm-1.62-27.7c9.06,1.76,14.09-2.54,18.38-9.66s8.28-14.4,7.33-23.26c-.44-4.08-1.81-7.25-5.93-8.94-8.14-3.32-16.21-6.82-24.29-10.31-2.57-1.11-3.86-.44-4.52,2.32-4.1,17-6,34.3-7.71,52.8Q573.16,352,581.2,353.52Z" transform="translate(762.71 464.19)"/><path class="cls-2" d="M188.86,605.53c-6.81-1.2-13.76.43-20.6-1.29A22.75,22.75,0,0,1,150.93,585c-2.62-18,10-29,26.64-29.6,3.75-.13,7.51.91,11.23-.16a14.31,14.31,0,0,0,.14-8.15c.52-4.08-3.31-4.31-5.7-6.38,4.7-1.79,9.54-1.82,14.19-2.7,2.15-.4,2.09,1.58,2.09,3.09,0,3.65.18,7.31-.05,10.94-.2,3.09.74,4,3.92,3.67,8.38-1,16.46.05,23.81,4.64,6.35,4,9.12,10.18,10.81,17.08a12,12,0,0,1,0,5.93c-2.35,16-13.9,21.77-28.41,21.85-10.51.06-10.6.07-10,10.64.22,3.5-.92,8.07,4.82,8.62.41.76.13,1.32-.67,1.34q-9.45.18-18.91,0c-.8,0-1.07-.58-.6-1.33a6.29,6.29,0,0,0,4.65-5.81A38.61,38.61,0,0,0,188.86,605.53Zm.58-27.69v-8.48c0-10.09,0-10.09-10.31-9s-17.08,8.56-17.43,19c-.39,12,5.4,19.83,16,21.68,6.79,1.19,11.45-2.43,11.68-9.28.16-4.66,0-9.32,0-14Zm27.36-15.37c-4.23-2.29-8.94-2.22-13.62-2.28-2.76,0-3.76.87-3.71,3.73.15,9.14,0,18.28.07,27.43.05,7.6,5,11.34,12.52,9.5,9.75-2.4,15.15-9.37,15-20.43C227.63,573,224.27,566.52,216.8,562.47Z" transform="translate(762.71 464.19)"/><path class="cls-2" d="M357,589.32c-3.51,13.84-13.47,18.8-26.95,18.73-3.71,0-7.52.93-11.19-.49-1.22,1.78.06,3.92-.83,5.75.16,5.13-2.43,11,5.11,14.93H306.25c-1-1.4-3.86,1.19-4.17-1.85a6,6,0,0,0,4.84-5.81c1.1-3.34-.14-6.85.75-10.2q.13-7.32.28-14.65c1.11-4.74-.23-9.6.73-14.35l.45-11.35c.17-4.69.22-9.32-5.54-11.59H315.5c4.73,1.12,9.58-.2,14.31.72,3.57.59,7.19,1,10.7,1.79,9.26,2.18,13.82,8.93,16.47,17.42A36.21,36.21,0,0,1,357,589.32ZM318.9,581.8c-.22,4.32-.51,8.63-.64,13-.17,5.61,1.79,7.85,7.33,8.67,9.1,1.36,16.52-3,19.64-11.63,5.22-14.48-2.44-29.89-23.68-28.51-2.25.14-2.26,1.62-2.28,3.07-.07,5.15,0,10.3,0,15.45Z" transform="translate(762.71 464.19)"/><path class="cls-2" d="M41.55,631.26H33.47c1.5-2.19,4.24-2.9,4.49-5.53a30.15,30.15,0,0,0,0-10.8l-.27-9.62c-.93-3.37.36-6.9-.74-10.26l-.26-8.74c-.93-3.38.36-6.92-.74-10.29.12-5.22.06-10.35-5.94-12.71.87-3,3.72-.5,5.19-1.87l9.7-.28c3.06-.86,6.27.33,9.32-.72,4.64.07,9.31.14,13.82,1.23,9.83,2.38,14.63,9.5,17,18.72A41.24,41.24,0,0,1,85,591.32c-4,12.79-13.81,17.37-26.18,18.21-2.57.64-5.18.22-7.77.28-2,0-3.26.53-2.3,2.87,0,2.65.11,5.3.07,8-.07,4.21,1.24,7.59,6,9.32l-3,.56C48.44,631.45,44.91,630.15,41.55,631.26Zm4.94-49.37q.57,8.48,1.11,16.93c.21,3.29,1.92,5.09,5.14,5.79,7,1.53,12.93-.23,17.52-5.64,5.65-6.65,6.09-18,1.31-25.28-4.5-6.82-16.1-10.73-24.14-8.34-1.94.58-1.6,1.84-1.55,3.08.18,4.49.45,9,.68,13.46Z" transform="translate(762.71 464.19)"/><path class="cls-2" d="M444.66,580.38c.51-3.49,1-7,1.58-10.94,5.13,2.46,9.75-.62,14.64-1.26a43.41,43.41,0,0,1,11.94,0c11.44,4.06,13.09,6,13,14.87,0,1.64,0,3.28,0,4.93-.95,2,.08,4.27-.74,6.3l-.24,4.78c-1,2,.06,4.21-.74,6.22-.53,5.43-1.49,11,6.42,13.94h-8.27c-2-1-4.28.11-6.3-.77-1.65-5.82-4.18-7.11-9.79-3.4-4.94,3.28-11.28,2.86-17,1.79-6.52-1.22-11.76-6.71-11-11.88a16.51,16.51,0,0,1,10.69-13.53c6.33-2.5,13.05-3.52,19.69-4.86,2.56-.52,6.45.3,6.55-4,.1-4.53-2.48-7.19-6.8-8.36-9.36-2.52-16.6.69-22.34,8.1C444,582.56,444.39,581.43,444.66,580.38ZM466.81,610c6.18-4.54,6.65-11.57,7.64-18.3.27-1.83-1.4-1.52-2.47-1.4-6.91.74-13.43,2.58-18.65,7.46-2.66,2.48-4.5,5.46-2.89,9.34a8.44,8.44,0,0,0,7.46,5.21C462.09,612.43,464.62,611.6,466.81,610Z" transform="translate(762.71 464.19)"/><path class="cls-2" d="M-55.49,619.25a21.57,21.57,0,0,1-8-1.4c-7.19-3-9.13-13-3.75-18.92s12.34-9.26,19.83-11.66c1.26-.41,2.53-.82,3.77-1.3,2.15-.83,5.79-.45,5.58-3.6s-.72-6.92-4.83-8.1a22.22,22.22,0,0,0-9.5,0c-7.37,1-11.75,6-15.67,13.13,0-5,0-8.71,0-12.45,0-.61-.59-1.82.8-1.8,6.77.12,12.16-4.37,18.72-5.37,13-2,18.32,1,21.55,13.62.83,2-.22,4.27.74,6.28l.29,5.72c.68,1.74-.12,3.66.7,5.37.11,2.81-.15,5.69.44,8.39.77,3.5,2.7,6.37,7,6.53-1.37,2.36-3.7,1.07-5.37,1.83-2,.83-4.3-.2-6.32.75a5,5,0,0,1-3.56-3.1c-1-3-2.4-4-5.11-1.11-3.21,3.43-7.49,5.27-12,6.46C-51.88,619.27-53.81,618.37-55.49,619.25ZM-37,590.49c0-1.92-.8-2.12-2.48-1.58-6.57,2.11-12.73,4.89-17.08,10.52-2.34,3-3.79,6.48-1.27,10.07s6.42,4.4,10.63,3.22c7-2,10.14-7.22,10.2-17.26C-37,593.8-37.07,592.14-37,590.49Z" transform="translate(762.71 464.19)"/><path class="cls-2" d="M119.17,556.44c3.49,1,7.16.76,10.69,1.81,10,3,15.49,9.81,16.81,19.85,1.42,10.72-2.57,19.54-11.9,24.92-10.86,6.28-22.21,6.49-32.88-.85-5.46-3.75-8.72-9-8.85-16-.07-4.27-.18-8.49,1.14-12.66,3.09-9.7,10.26-14.34,19.7-16.31C115.56,556.39,117.5,557.34,119.17,556.44Zm13.42,13.22c-2.94-5.45-7.56-8.45-13.81-8s-11.14,3.54-13.17,9.74c-2.84,8.68-2,17.18,3.06,24.83a13.81,13.81,0,0,0,21.27,2.4c4.41-4.19,5.53-9.68,5.82-15.66C135.51,578.45,134.85,573.84,132.59,569.66Z" transform="translate(762.71 464.19)"/><path class="cls-1" d="M714.68,76.47a42.51,42.51,0,0,1-22-6,44.48,44.48,0,0,1-21.85-38.33A44.2,44.2,0,0,1,674.31,15,42.83,42.83,0,0,1,683.72.86a45.3,45.3,0,0,1,14-9.4,42.85,42.85,0,0,1,33.69-.1A43.28,43.28,0,0,1,745.38.85a44.48,44.48,0,0,1,12.77,31.31,44.72,44.72,0,0,1-3.3,17.11,43.38,43.38,0,0,1-9.35,14.19,43.86,43.86,0,0,1-14.15,9.61,41.19,41.19,0,0,1-16.67,3.4Zm0-6.26a34.64,34.64,0,0,0,18.2-5.11,37.57,37.57,0,0,0,13.49-13.95,37.89,37.89,0,0,0,5-19,38,38,0,0,0-4.91-18.91A37.46,37.46,0,0,0,733-.67a35.16,35.16,0,0,0-32.34-2.25,37.1,37.1,0,0,0-12,8.27,39,39,0,0,0-8.13,12.34A37.8,37.8,0,0,0,682.64,51a37.18,37.18,0,0,0,22.51,17.87A34.6,34.6,0,0,0,714.68,70.21Zm-9.83-37.42V56l-1.74-.36h-1.43L698.5,56V8.34H714q16.18,0,16.18,10.65a10.49,10.49,0,0,1-4.31,8.73,24.41,24.41,0,0,1-10.68,4.47l15,18.15,3.52,3.84L735.07,56l-2.28-.36H729l-2.22.24-2.46-3.28-2.07-2.76-8.7-10.58-5.82-6.44Zm0-20.68V29h8a12,12,0,0,0,7.94-2.52,8.23,8.23,0,0,0,3-6.66q0-7.73-8.28-7.73Z" transform="translate(762.71 464.19)"/></svg>